<mxfile host="app.diagrams.net" modified="2024-07-28T11:28:10.238Z" agent="Mozilla/5.0 (Windows NT 10.0; Win64; x64) AppleWebKit/537.36 (KHTML, like Gecko) Chrome/126.0.0.0 Safari/537.36" etag="E5_kbC7pgTob0ZTg5-SR" version="24.6.5" type="device">
  <diagram name="Page-1" id="edf60f1a-56cd-e834-aa8a-f176f3a09ee4">
    <mxGraphModel dx="1500" dy="746" grid="1" gridSize="10" guides="1" tooltips="1" connect="1" arrows="1" fold="1" page="1" pageScale="1" pageWidth="1100" pageHeight="850" background="none" math="0" shadow="0">
      <root>
        <mxCell id="0" />
        <mxCell id="1" parent="0" />
        <mxCell id="Quf_ULOM_dsfAj-B8QQe-7" value="" style="edgeStyle=orthogonalEdgeStyle;rounded=0;orthogonalLoop=1;jettySize=auto;html=1;" edge="1" parent="1" source="Quf_ULOM_dsfAj-B8QQe-1" target="Quf_ULOM_dsfAj-B8QQe-5">
          <mxGeometry relative="1" as="geometry" />
        </mxCell>
        <mxCell id="Quf_ULOM_dsfAj-B8QQe-1" value="CALL = 0&lt;div&gt;WARN = 0&lt;/div&gt;" style="rounded=0;whiteSpace=wrap;html=1;" vertex="1" parent="1">
          <mxGeometry x="725" y="110" width="120" height="60" as="geometry" />
        </mxCell>
        <mxCell id="Quf_ULOM_dsfAj-B8QQe-2" value="" style="endArrow=classic;html=1;rounded=0;" edge="1" parent="1">
          <mxGeometry width="50" height="50" relative="1" as="geometry">
            <mxPoint x="784.47" y="50" as="sourcePoint" />
            <mxPoint x="784.47" y="110" as="targetPoint" />
          </mxGeometry>
        </mxCell>
        <mxCell id="Quf_ULOM_dsfAj-B8QQe-4" value="reset" style="edgeLabel;html=1;align=center;verticalAlign=middle;resizable=0;points=[];" vertex="1" connectable="0" parent="Quf_ULOM_dsfAj-B8QQe-2">
          <mxGeometry x="-0.1807" y="-1" relative="1" as="geometry">
            <mxPoint as="offset" />
          </mxGeometry>
        </mxCell>
        <mxCell id="Quf_ULOM_dsfAj-B8QQe-19" style="edgeStyle=none;rounded=0;orthogonalLoop=1;jettySize=auto;html=1;entryX=0;entryY=0.5;entryDx=0;entryDy=0;" edge="1" parent="1" source="Quf_ULOM_dsfAj-B8QQe-5" target="Quf_ULOM_dsfAj-B8QQe-1">
          <mxGeometry relative="1" as="geometry">
            <Array as="points">
              <mxPoint x="685" y="240" />
              <mxPoint x="685" y="140" />
            </Array>
          </mxGeometry>
        </mxCell>
        <mxCell id="Quf_ULOM_dsfAj-B8QQe-20" value="0" style="edgeLabel;html=1;align=center;verticalAlign=middle;resizable=0;points=[];" vertex="1" connectable="0" parent="Quf_ULOM_dsfAj-B8QQe-19">
          <mxGeometry x="-0.71" relative="1" as="geometry">
            <mxPoint as="offset" />
          </mxGeometry>
        </mxCell>
        <mxCell id="Quf_ULOM_dsfAj-B8QQe-29" value="" style="edgeStyle=none;rounded=0;orthogonalLoop=1;jettySize=auto;html=1;" edge="1" parent="1" source="Quf_ULOM_dsfAj-B8QQe-5" target="Quf_ULOM_dsfAj-B8QQe-28">
          <mxGeometry relative="1" as="geometry" />
        </mxCell>
        <mxCell id="Quf_ULOM_dsfAj-B8QQe-31" value="1" style="edgeLabel;html=1;align=center;verticalAlign=middle;resizable=0;points=[];" vertex="1" connectable="0" parent="Quf_ULOM_dsfAj-B8QQe-29">
          <mxGeometry x="-0.5145" y="-1" relative="1" as="geometry">
            <mxPoint as="offset" />
          </mxGeometry>
        </mxCell>
        <mxCell id="Quf_ULOM_dsfAj-B8QQe-5" value="START" style="rhombus;whiteSpace=wrap;html=1;" vertex="1" parent="1">
          <mxGeometry x="745" y="200" width="80" height="80" as="geometry" />
        </mxCell>
        <mxCell id="Quf_ULOM_dsfAj-B8QQe-40" value="" style="edgeStyle=none;rounded=0;orthogonalLoop=1;jettySize=auto;html=1;" edge="1" parent="1" source="Quf_ULOM_dsfAj-B8QQe-24" target="Quf_ULOM_dsfAj-B8QQe-39">
          <mxGeometry relative="1" as="geometry" />
        </mxCell>
        <mxCell id="Quf_ULOM_dsfAj-B8QQe-24" value="DOWN = 0&lt;div&gt;CALL = 1&lt;/div&gt;&lt;div&gt;WARN = 0&lt;/div&gt;" style="whiteSpace=wrap;html=1;" vertex="1" parent="1">
          <mxGeometry x="885" y="345" width="120" height="60" as="geometry" />
        </mxCell>
        <mxCell id="Quf_ULOM_dsfAj-B8QQe-32" style="edgeStyle=none;rounded=0;orthogonalLoop=1;jettySize=auto;html=1;entryX=1;entryY=0.5;entryDx=0;entryDy=0;" edge="1" parent="1" source="Quf_ULOM_dsfAj-B8QQe-28" target="Quf_ULOM_dsfAj-B8QQe-1">
          <mxGeometry relative="1" as="geometry">
            <Array as="points">
              <mxPoint x="945" y="140" />
            </Array>
          </mxGeometry>
        </mxCell>
        <mxCell id="Quf_ULOM_dsfAj-B8QQe-34" value="0" style="edgeLabel;html=1;align=center;verticalAlign=middle;resizable=0;points=[];" vertex="1" connectable="0" parent="Quf_ULOM_dsfAj-B8QQe-32">
          <mxGeometry x="-0.7612" relative="1" as="geometry">
            <mxPoint as="offset" />
          </mxGeometry>
        </mxCell>
        <mxCell id="Quf_ULOM_dsfAj-B8QQe-35" style="edgeStyle=none;rounded=0;orthogonalLoop=1;jettySize=auto;html=1;entryX=0.5;entryY=0;entryDx=0;entryDy=0;" edge="1" parent="1" source="Quf_ULOM_dsfAj-B8QQe-28" target="Quf_ULOM_dsfAj-B8QQe-24">
          <mxGeometry relative="1" as="geometry" />
        </mxCell>
        <mxCell id="Quf_ULOM_dsfAj-B8QQe-36" value="1" style="edgeLabel;html=1;align=center;verticalAlign=middle;resizable=0;points=[];" vertex="1" connectable="0" parent="Quf_ULOM_dsfAj-B8QQe-35">
          <mxGeometry x="-0.4882" relative="1" as="geometry">
            <mxPoint as="offset" />
          </mxGeometry>
        </mxCell>
        <mxCell id="Quf_ULOM_dsfAj-B8QQe-28" value="HAS-COIN" style="rhombus;whiteSpace=wrap;html=1;" vertex="1" parent="1">
          <mxGeometry x="905" y="200" width="80" height="80" as="geometry" />
        </mxCell>
        <mxCell id="Quf_ULOM_dsfAj-B8QQe-37" value="start loop" style="text;html=1;align=center;verticalAlign=middle;resizable=0;points=[];autosize=1;strokeColor=none;fillColor=none;" vertex="1" parent="1">
          <mxGeometry x="715" y="88" width="70" height="30" as="geometry" />
        </mxCell>
        <mxCell id="Quf_ULOM_dsfAj-B8QQe-43" style="edgeStyle=none;rounded=0;orthogonalLoop=1;jettySize=auto;html=1;entryX=0;entryY=0.75;entryDx=0;entryDy=0;" edge="1" parent="1" source="Quf_ULOM_dsfAj-B8QQe-39" target="Quf_ULOM_dsfAj-B8QQe-1">
          <mxGeometry relative="1" as="geometry">
            <Array as="points">
              <mxPoint x="745" y="260" />
              <mxPoint x="665" y="260" />
              <mxPoint x="665" y="155" />
            </Array>
          </mxGeometry>
        </mxCell>
        <mxCell id="Quf_ULOM_dsfAj-B8QQe-44" value="0" style="edgeLabel;html=1;align=center;verticalAlign=middle;resizable=0;points=[];" vertex="1" connectable="0" parent="Quf_ULOM_dsfAj-B8QQe-43">
          <mxGeometry x="-0.8434" relative="1" as="geometry">
            <mxPoint as="offset" />
          </mxGeometry>
        </mxCell>
        <mxCell id="Quf_ULOM_dsfAj-B8QQe-51" value="" style="edgeStyle=none;rounded=0;orthogonalLoop=1;jettySize=auto;html=1;" edge="1" parent="1" source="Quf_ULOM_dsfAj-B8QQe-39" target="Quf_ULOM_dsfAj-B8QQe-50">
          <mxGeometry relative="1" as="geometry" />
        </mxCell>
        <mxCell id="Quf_ULOM_dsfAj-B8QQe-52" value="1" style="edgeLabel;html=1;align=center;verticalAlign=middle;resizable=0;points=[];" vertex="1" connectable="0" parent="Quf_ULOM_dsfAj-B8QQe-51">
          <mxGeometry x="-0.5382" y="-1" relative="1" as="geometry">
            <mxPoint as="offset" />
          </mxGeometry>
        </mxCell>
        <mxCell id="Quf_ULOM_dsfAj-B8QQe-39" value="START" style="rhombus;whiteSpace=wrap;html=1;" vertex="1" parent="1">
          <mxGeometry x="705" y="335" width="80" height="80" as="geometry" />
        </mxCell>
        <mxCell id="Quf_ULOM_dsfAj-B8QQe-49" style="edgeStyle=none;rounded=0;orthogonalLoop=1;jettySize=auto;html=1;entryX=0.5;entryY=1;entryDx=0;entryDy=0;" edge="1" parent="1" source="Quf_ULOM_dsfAj-B8QQe-46" target="Quf_ULOM_dsfAj-B8QQe-24">
          <mxGeometry relative="1" as="geometry">
            <mxPoint x="945" y="530" as="targetPoint" />
            <Array as="points">
              <mxPoint x="945" y="530" />
            </Array>
          </mxGeometry>
        </mxCell>
        <mxCell id="Quf_ULOM_dsfAj-B8QQe-46" value="DOWN = 1" style="whiteSpace=wrap;html=1;" vertex="1" parent="1">
          <mxGeometry x="685" y="500" width="120" height="60" as="geometry" />
        </mxCell>
        <mxCell id="Quf_ULOM_dsfAj-B8QQe-48" value="decrement" style="text;html=1;align=left;verticalAlign=middle;resizable=0;points=[];autosize=1;strokeColor=none;fillColor=none;" vertex="1" parent="1">
          <mxGeometry x="685" y="475" width="80" height="30" as="geometry" />
        </mxCell>
        <mxCell id="Quf_ULOM_dsfAj-B8QQe-53" style="edgeStyle=none;rounded=0;orthogonalLoop=1;jettySize=auto;html=1;exitX=0.5;exitY=1;exitDx=0;exitDy=0;entryX=0;entryY=0.5;entryDx=0;entryDy=0;" edge="1" parent="1" source="Quf_ULOM_dsfAj-B8QQe-50" target="Quf_ULOM_dsfAj-B8QQe-46">
          <mxGeometry relative="1" as="geometry">
            <Array as="points">
              <mxPoint x="585" y="530" />
            </Array>
          </mxGeometry>
        </mxCell>
        <mxCell id="Quf_ULOM_dsfAj-B8QQe-54" value="1" style="edgeLabel;html=1;align=center;verticalAlign=middle;resizable=0;points=[];" vertex="1" connectable="0" parent="Quf_ULOM_dsfAj-B8QQe-53">
          <mxGeometry x="-0.7532" y="-2" relative="1" as="geometry">
            <mxPoint as="offset" />
          </mxGeometry>
        </mxCell>
        <mxCell id="Quf_ULOM_dsfAj-B8QQe-56" value="" style="edgeStyle=none;rounded=0;orthogonalLoop=1;jettySize=auto;html=1;" edge="1" parent="1" source="Quf_ULOM_dsfAj-B8QQe-50" target="Quf_ULOM_dsfAj-B8QQe-55">
          <mxGeometry relative="1" as="geometry" />
        </mxCell>
        <mxCell id="Quf_ULOM_dsfAj-B8QQe-59" value="0" style="edgeLabel;html=1;align=center;verticalAlign=middle;resizable=0;points=[];" vertex="1" connectable="0" parent="Quf_ULOM_dsfAj-B8QQe-56">
          <mxGeometry x="-0.4544" y="-1" relative="1" as="geometry">
            <mxPoint as="offset" />
          </mxGeometry>
        </mxCell>
        <mxCell id="Quf_ULOM_dsfAj-B8QQe-50" value="HAS-COIN" style="rhombus;whiteSpace=wrap;html=1;" vertex="1" parent="1">
          <mxGeometry x="545" y="335" width="80" height="80" as="geometry" />
        </mxCell>
        <mxCell id="Quf_ULOM_dsfAj-B8QQe-71" value="" style="edgeStyle=none;rounded=0;orthogonalLoop=1;jettySize=auto;html=1;" edge="1" parent="1" source="Quf_ULOM_dsfAj-B8QQe-55" target="Quf_ULOM_dsfAj-B8QQe-70">
          <mxGeometry relative="1" as="geometry" />
        </mxCell>
        <mxCell id="Quf_ULOM_dsfAj-B8QQe-55" value="WARN = 1" style="whiteSpace=wrap;html=1;" vertex="1" parent="1">
          <mxGeometry x="365" y="345" width="120" height="60" as="geometry" />
        </mxCell>
        <mxCell id="Quf_ULOM_dsfAj-B8QQe-57" value="warning 1" style="text;html=1;align=left;verticalAlign=middle;resizable=0;points=[];autosize=1;strokeColor=none;fillColor=none;" vertex="1" parent="1">
          <mxGeometry x="365" y="320" width="80" height="30" as="geometry" />
        </mxCell>
        <mxCell id="Quf_ULOM_dsfAj-B8QQe-58" value="call" style="text;html=1;align=left;verticalAlign=middle;resizable=0;points=[];autosize=1;strokeColor=none;fillColor=none;" vertex="1" parent="1">
          <mxGeometry x="885" y="320" width="40" height="30" as="geometry" />
        </mxCell>
        <mxCell id="Quf_ULOM_dsfAj-B8QQe-79" style="edgeStyle=none;rounded=0;orthogonalLoop=1;jettySize=auto;html=1;exitX=0.5;exitY=1;exitDx=0;exitDy=0;entryX=1;entryY=0.5;entryDx=0;entryDy=0;" edge="1" parent="1" source="Quf_ULOM_dsfAj-B8QQe-60" target="Quf_ULOM_dsfAj-B8QQe-78">
          <mxGeometry relative="1" as="geometry">
            <mxPoint x="300" y="580" as="targetPoint" />
            <mxPoint x="425" y="520" as="sourcePoint" />
            <Array as="points">
              <mxPoint x="425" y="550" />
            </Array>
          </mxGeometry>
        </mxCell>
        <mxCell id="Quf_ULOM_dsfAj-B8QQe-60" value="WARN = 1" style="whiteSpace=wrap;html=1;" vertex="1" parent="1">
          <mxGeometry x="365" y="440" width="120" height="60" as="geometry" />
        </mxCell>
        <mxCell id="Quf_ULOM_dsfAj-B8QQe-65" value="warning 2" style="text;html=1;align=left;verticalAlign=middle;resizable=0;points=[];autosize=1;strokeColor=none;fillColor=none;" vertex="1" parent="1">
          <mxGeometry x="365" y="415" width="80" height="30" as="geometry" />
        </mxCell>
        <mxCell id="Quf_ULOM_dsfAj-B8QQe-85" value="" style="edgeStyle=none;rounded=0;orthogonalLoop=1;jettySize=auto;html=1;" edge="1" parent="1" source="Quf_ULOM_dsfAj-B8QQe-66" target="Quf_ULOM_dsfAj-B8QQe-84">
          <mxGeometry relative="1" as="geometry" />
        </mxCell>
        <mxCell id="Quf_ULOM_dsfAj-B8QQe-66" value="WARN = 1" style="whiteSpace=wrap;html=1;" vertex="1" parent="1">
          <mxGeometry x="365" y="587" width="120" height="60" as="geometry" />
        </mxCell>
        <mxCell id="Quf_ULOM_dsfAj-B8QQe-67" value="warning 3" style="text;html=1;align=left;verticalAlign=middle;resizable=0;points=[];autosize=1;strokeColor=none;fillColor=none;" vertex="1" parent="1">
          <mxGeometry x="365" y="560" width="80" height="30" as="geometry" />
        </mxCell>
        <mxCell id="Quf_ULOM_dsfAj-B8QQe-74" style="edgeStyle=none;rounded=0;orthogonalLoop=1;jettySize=auto;html=1;exitX=0.5;exitY=1;exitDx=0;exitDy=0;entryX=0;entryY=0.5;entryDx=0;entryDy=0;" edge="1" parent="1" source="Quf_ULOM_dsfAj-B8QQe-70" target="Quf_ULOM_dsfAj-B8QQe-106">
          <mxGeometry relative="1" as="geometry">
            <mxPoint x="240" y="460" as="targetPoint" />
            <Array as="points">
              <mxPoint x="240" y="415" />
              <mxPoint x="240" y="470" />
            </Array>
          </mxGeometry>
        </mxCell>
        <mxCell id="Quf_ULOM_dsfAj-B8QQe-75" value="0" style="edgeLabel;html=1;align=center;verticalAlign=middle;resizable=0;points=[];" vertex="1" connectable="0" parent="Quf_ULOM_dsfAj-B8QQe-74">
          <mxGeometry x="-0.7271" relative="1" as="geometry">
            <mxPoint as="offset" />
          </mxGeometry>
        </mxCell>
        <mxCell id="Quf_ULOM_dsfAj-B8QQe-90" style="edgeStyle=none;rounded=0;orthogonalLoop=1;jettySize=auto;html=1;exitX=0;exitY=0.5;exitDx=0;exitDy=0;entryX=0;entryY=0.5;entryDx=0;entryDy=0;" edge="1" parent="1" source="Quf_ULOM_dsfAj-B8QQe-70" target="Quf_ULOM_dsfAj-B8QQe-84">
          <mxGeometry relative="1" as="geometry">
            <Array as="points">
              <mxPoint x="190" y="375" />
              <mxPoint x="190" y="720" />
            </Array>
          </mxGeometry>
        </mxCell>
        <mxCell id="Quf_ULOM_dsfAj-B8QQe-94" value="1" style="edgeLabel;html=1;align=center;verticalAlign=middle;resizable=0;points=[];" vertex="1" connectable="0" parent="Quf_ULOM_dsfAj-B8QQe-90">
          <mxGeometry x="-0.9429" relative="1" as="geometry">
            <mxPoint as="offset" />
          </mxGeometry>
        </mxCell>
        <mxCell id="Quf_ULOM_dsfAj-B8QQe-70" value="HAS-COIN" style="rhombus;whiteSpace=wrap;html=1;" vertex="1" parent="1">
          <mxGeometry x="230" y="335" width="80" height="80" as="geometry" />
        </mxCell>
        <mxCell id="Quf_ULOM_dsfAj-B8QQe-93" style="edgeStyle=none;rounded=0;orthogonalLoop=1;jettySize=auto;html=1;exitX=0;exitY=0.5;exitDx=0;exitDy=0;entryX=0;entryY=0.5;entryDx=0;entryDy=0;" edge="1" parent="1" source="Quf_ULOM_dsfAj-B8QQe-78" target="Quf_ULOM_dsfAj-B8QQe-84">
          <mxGeometry relative="1" as="geometry">
            <Array as="points">
              <mxPoint x="190" y="550" />
              <mxPoint x="190" y="720" />
            </Array>
          </mxGeometry>
        </mxCell>
        <mxCell id="Quf_ULOM_dsfAj-B8QQe-95" value="1" style="edgeLabel;html=1;align=center;verticalAlign=middle;resizable=0;points=[];" vertex="1" connectable="0" parent="Quf_ULOM_dsfAj-B8QQe-93">
          <mxGeometry x="-0.921" y="-2" relative="1" as="geometry">
            <mxPoint as="offset" />
          </mxGeometry>
        </mxCell>
        <mxCell id="Quf_ULOM_dsfAj-B8QQe-112" style="edgeStyle=none;rounded=0;orthogonalLoop=1;jettySize=auto;html=1;exitX=0.5;exitY=1;exitDx=0;exitDy=0;entryX=0;entryY=0.5;entryDx=0;entryDy=0;" edge="1" parent="1" source="Quf_ULOM_dsfAj-B8QQe-78" target="Quf_ULOM_dsfAj-B8QQe-111">
          <mxGeometry relative="1" as="geometry">
            <Array as="points">
              <mxPoint x="230" y="590" />
            </Array>
          </mxGeometry>
        </mxCell>
        <mxCell id="Quf_ULOM_dsfAj-B8QQe-113" value="0" style="edgeLabel;html=1;align=center;verticalAlign=middle;resizable=0;points=[];" vertex="1" connectable="0" parent="Quf_ULOM_dsfAj-B8QQe-112">
          <mxGeometry x="-0.6156" y="2" relative="1" as="geometry">
            <mxPoint as="offset" />
          </mxGeometry>
        </mxCell>
        <mxCell id="Quf_ULOM_dsfAj-B8QQe-78" value="HAS-COIN" style="rhombus;whiteSpace=wrap;html=1;" vertex="1" parent="1">
          <mxGeometry x="230" y="510" width="80" height="80" as="geometry" />
        </mxCell>
        <mxCell id="Quf_ULOM_dsfAj-B8QQe-87" value="" style="edgeStyle=none;rounded=0;orthogonalLoop=1;jettySize=auto;html=1;" edge="1" parent="1" source="Quf_ULOM_dsfAj-B8QQe-84" target="Quf_ULOM_dsfAj-B8QQe-86">
          <mxGeometry relative="1" as="geometry" />
        </mxCell>
        <mxCell id="Quf_ULOM_dsfAj-B8QQe-88" value="0" style="edgeLabel;html=1;align=center;verticalAlign=middle;resizable=0;points=[];" vertex="1" connectable="0" parent="Quf_ULOM_dsfAj-B8QQe-87">
          <mxGeometry x="-0.4667" relative="1" as="geometry">
            <mxPoint as="offset" />
          </mxGeometry>
        </mxCell>
        <mxCell id="Quf_ULOM_dsfAj-B8QQe-96" style="edgeStyle=none;rounded=0;orthogonalLoop=1;jettySize=auto;html=1;exitX=1;exitY=0.5;exitDx=0;exitDy=0;entryX=0.75;entryY=1;entryDx=0;entryDy=0;" edge="1" parent="1" source="Quf_ULOM_dsfAj-B8QQe-84" target="Quf_ULOM_dsfAj-B8QQe-24">
          <mxGeometry relative="1" as="geometry">
            <Array as="points">
              <mxPoint x="980" y="720" />
            </Array>
          </mxGeometry>
        </mxCell>
        <mxCell id="Quf_ULOM_dsfAj-B8QQe-97" value="1" style="edgeLabel;html=1;align=center;verticalAlign=middle;resizable=0;points=[];" vertex="1" connectable="0" parent="Quf_ULOM_dsfAj-B8QQe-96">
          <mxGeometry x="-0.95" relative="1" as="geometry">
            <mxPoint as="offset" />
          </mxGeometry>
        </mxCell>
        <mxCell id="Quf_ULOM_dsfAj-B8QQe-84" value="HAS-COIN" style="rhombus;whiteSpace=wrap;html=1;" vertex="1" parent="1">
          <mxGeometry x="385" y="680" width="80" height="80" as="geometry" />
        </mxCell>
        <mxCell id="Quf_ULOM_dsfAj-B8QQe-86" value="&lt;div&gt;WARN = 1&lt;/div&gt;CALL = 0" style="whiteSpace=wrap;html=1;rounded=1;" vertex="1" parent="1">
          <mxGeometry x="365" y="790" width="120" height="60" as="geometry" />
        </mxCell>
        <mxCell id="Quf_ULOM_dsfAj-B8QQe-89" value="finish" style="text;html=1;align=left;verticalAlign=middle;resizable=0;points=[];autosize=1;strokeColor=none;fillColor=none;" vertex="1" parent="1">
          <mxGeometry x="365" y="768" width="50" height="30" as="geometry" />
        </mxCell>
        <mxCell id="Quf_ULOM_dsfAj-B8QQe-99" value="000" style="text;html=1;align=right;verticalAlign=middle;resizable=0;points=[];autosize=1;strokeColor=none;fillColor=none;" vertex="1" parent="1">
          <mxGeometry x="805" y="88" width="40" height="30" as="geometry" />
        </mxCell>
        <mxCell id="Quf_ULOM_dsfAj-B8QQe-100" value="001" style="text;html=1;align=right;verticalAlign=middle;resizable=0;points=[];autosize=1;strokeColor=none;fillColor=none;" vertex="1" parent="1">
          <mxGeometry x="965" y="320" width="40" height="30" as="geometry" />
        </mxCell>
        <mxCell id="Quf_ULOM_dsfAj-B8QQe-101" value="010" style="text;html=1;align=right;verticalAlign=middle;resizable=0;points=[];autosize=1;strokeColor=none;fillColor=none;" vertex="1" parent="1">
          <mxGeometry x="765" y="475" width="40" height="30" as="geometry" />
        </mxCell>
        <mxCell id="Quf_ULOM_dsfAj-B8QQe-102" value="011" style="text;html=1;align=right;verticalAlign=middle;resizable=0;points=[];autosize=1;strokeColor=none;fillColor=none;" vertex="1" parent="1">
          <mxGeometry x="445" y="320" width="40" height="30" as="geometry" />
        </mxCell>
        <mxCell id="Quf_ULOM_dsfAj-B8QQe-103" value="100" style="text;html=1;align=right;verticalAlign=middle;resizable=0;points=[];autosize=1;strokeColor=none;fillColor=none;" vertex="1" parent="1">
          <mxGeometry x="445" y="415" width="40" height="30" as="geometry" />
        </mxCell>
        <mxCell id="Quf_ULOM_dsfAj-B8QQe-104" value="101" style="text;html=1;align=right;verticalAlign=middle;resizable=0;points=[];autosize=1;strokeColor=none;fillColor=none;" vertex="1" parent="1">
          <mxGeometry x="445" y="560" width="40" height="30" as="geometry" />
        </mxCell>
        <mxCell id="Quf_ULOM_dsfAj-B8QQe-105" value="110" style="text;html=1;align=right;verticalAlign=middle;resizable=0;points=[];autosize=1;strokeColor=none;fillColor=none;" vertex="1" parent="1">
          <mxGeometry x="440" y="768" width="40" height="30" as="geometry" />
        </mxCell>
        <mxCell id="Quf_ULOM_dsfAj-B8QQe-109" style="edgeStyle=none;rounded=0;orthogonalLoop=1;jettySize=auto;html=1;exitX=1;exitY=0.5;exitDx=0;exitDy=0;entryX=0;entryY=0.5;entryDx=0;entryDy=0;" edge="1" parent="1" source="Quf_ULOM_dsfAj-B8QQe-106" target="Quf_ULOM_dsfAj-B8QQe-60">
          <mxGeometry relative="1" as="geometry" />
        </mxCell>
        <mxCell id="Quf_ULOM_dsfAj-B8QQe-110" value="1" style="edgeLabel;html=1;align=center;verticalAlign=middle;resizable=0;points=[];" vertex="1" connectable="0" parent="Quf_ULOM_dsfAj-B8QQe-109">
          <mxGeometry x="-0.3156" relative="1" as="geometry">
            <mxPoint as="offset" />
          </mxGeometry>
        </mxCell>
        <mxCell id="Quf_ULOM_dsfAj-B8QQe-116" style="edgeStyle=none;rounded=0;orthogonalLoop=1;jettySize=auto;html=1;exitX=0.5;exitY=0;exitDx=0;exitDy=0;entryX=0;entryY=0.25;entryDx=0;entryDy=0;" edge="1" parent="1" source="Quf_ULOM_dsfAj-B8QQe-106" target="Quf_ULOM_dsfAj-B8QQe-1">
          <mxGeometry relative="1" as="geometry">
            <Array as="points">
              <mxPoint x="300" y="410" />
              <mxPoint x="330" y="410" />
              <mxPoint x="330" y="125" />
            </Array>
          </mxGeometry>
        </mxCell>
        <mxCell id="Quf_ULOM_dsfAj-B8QQe-117" value="0" style="edgeLabel;html=1;align=center;verticalAlign=middle;resizable=0;points=[];" vertex="1" connectable="0" parent="Quf_ULOM_dsfAj-B8QQe-116">
          <mxGeometry x="-0.9604" relative="1" as="geometry">
            <mxPoint as="offset" />
          </mxGeometry>
        </mxCell>
        <mxCell id="Quf_ULOM_dsfAj-B8QQe-106" value="START" style="rhombus;whiteSpace=wrap;html=1;" vertex="1" parent="1">
          <mxGeometry x="260" y="430" width="80" height="80" as="geometry" />
        </mxCell>
        <mxCell id="Quf_ULOM_dsfAj-B8QQe-114" style="edgeStyle=none;rounded=0;orthogonalLoop=1;jettySize=auto;html=1;exitX=1;exitY=0.5;exitDx=0;exitDy=0;entryX=0;entryY=0.5;entryDx=0;entryDy=0;" edge="1" parent="1" source="Quf_ULOM_dsfAj-B8QQe-111" target="Quf_ULOM_dsfAj-B8QQe-66">
          <mxGeometry relative="1" as="geometry">
            <Array as="points">
              <mxPoint x="310" y="617" />
            </Array>
          </mxGeometry>
        </mxCell>
        <mxCell id="Quf_ULOM_dsfAj-B8QQe-115" value="1" style="edgeLabel;html=1;align=center;verticalAlign=middle;resizable=0;points=[];" vertex="1" connectable="0" parent="Quf_ULOM_dsfAj-B8QQe-114">
          <mxGeometry x="-0.5808" y="-2" relative="1" as="geometry">
            <mxPoint as="offset" />
          </mxGeometry>
        </mxCell>
        <mxCell id="Quf_ULOM_dsfAj-B8QQe-118" style="edgeStyle=none;rounded=0;orthogonalLoop=1;jettySize=auto;html=1;exitX=0.5;exitY=1;exitDx=0;exitDy=0;entryX=0;entryY=0.25;entryDx=0;entryDy=0;" edge="1" parent="1" source="Quf_ULOM_dsfAj-B8QQe-111">
          <mxGeometry relative="1" as="geometry">
            <mxPoint x="270" y="683" as="sourcePoint" />
            <mxPoint x="725" y="118" as="targetPoint" />
            <Array as="points">
              <mxPoint x="80" y="690" />
              <mxPoint x="80" y="118" />
            </Array>
          </mxGeometry>
        </mxCell>
        <mxCell id="Quf_ULOM_dsfAj-B8QQe-119" value="0" style="edgeLabel;html=1;align=center;verticalAlign=middle;resizable=0;points=[];" vertex="1" connectable="0" parent="Quf_ULOM_dsfAj-B8QQe-118">
          <mxGeometry x="-0.9648" y="4" relative="1" as="geometry">
            <mxPoint as="offset" />
          </mxGeometry>
        </mxCell>
        <mxCell id="Quf_ULOM_dsfAj-B8QQe-111" value="START" style="rhombus;whiteSpace=wrap;html=1;" vertex="1" parent="1">
          <mxGeometry x="230" y="610" width="80" height="80" as="geometry" />
        </mxCell>
      </root>
    </mxGraphModel>
  </diagram>
</mxfile>
